# xmcd
#
# Track frame offsets:
#	150
#	17358
#	36718
#	54400
#	74288
#	89788
#	105563
#	125048
#	145030
#	163370
#	176515
#	202538
#	219842
#	238715
#	257688
#	280083
#	298320
#	314918
#	332884
# 
# Disc length: 4709 seconds
# 
# Revision: 3
# Processed by: cddbd v1.4PL0 Copyright (c) Steve Scherf et al.
# Submitted via: Advanced CD Ripper Pro
#
DISCID=28126313
DTITLE=Various-No Sweat 16 - No Sweat 16
DYEAR=2002
DGENRE=R&B
TTITLE0=Nas - Got Ur Self A..
TTITLE1=Jennifer Lopez featuning Ja Rule - I'm  Real
TTITLE2=Destiny's Child - Emotion
TTITLE3=Ginuwine - Differences
TTITLE4=Joe - Let's Stay Home Tonight
TTITLE5=Ebon-E - On My Way (Hey What 2 Do)
TTITLE6=Ja Rule featuring Case - Livin' It Up
TTITLE7=Mary J Blige - Family Affair
TTITLE8=R.Kelly - Feellin 'On Yo Booty
TTITLE9=City High - What Would You Do
TTITLE10=Isley Brothers - Cantagious
TTITLE11=Eve featuring Gwen Stefani - Let Me Blow Ya Mind
TTITLE12=D-12 - Fight Music
TTITLE13=Nelly featuring St.Lunatics - Batter Up
TTITLE14=Missy Elliott featuring Ginuwine - Take Away
TTITLE15=Wyclef Jean - Wish You Where Here
TTITLE16=Nivea - Run away II Wanna Be With You
TTITLE17=Lloyd - Elke Stap
TTITLE18=Gordon and Re-Play - Weet dat Ik Van Je Hou
EXTD=
EXTT0=
EXTT1=
EXTT2=
EXTT3=
EXTT4=
EXTT5=
EXTT6=
EXTT7=
EXTT8=
EXTT9=
EXTT10=
EXTT11=
EXTT12=
EXTT13=
EXTT14=
EXTT15=
EXTT16=
EXTT17=
EXTT18=
PLAYORDER=
